<?xml version="1.0" encoding="utf-8"?>
<!-- Generator: Adobe Illustrator 23.0.2, SVG Export Plug-In . SVG Version: 6.00 Build 0)  -->
<svg version="1.1" id="Layer_1" xmlns="http://www.w3.org/2000/svg" xmlns:xlink="http://www.w3.org/1999/xlink" x="0px" y="0px"
	 viewBox="0 0 217 178.7" style="enable-background:new 0 0 217 178.7;" xml:space="preserve">
<style type="text/css">
	.st0{fill-rule:evenodd;clip-rule:evenodd;fill:#EEA023;}
	.st1{fill-rule:evenodd;clip-rule:evenodd;fill:#8C6430;}
	.st2{fill-rule:evenodd;clip-rule:evenodd;fill:#CA852A;}
	.st3{fill-rule:evenodd;clip-rule:evenodd;fill:#307BB7;}
	.st4{fill-rule:evenodd;clip-rule:evenodd;fill:#43A5D5;}
	.st5{fill-rule:evenodd;clip-rule:evenodd;fill:#333B86;}
</style>
<g>
	<path class="st0" d="M92.7,98.3c0,0,19.6,17.3,20.8,18.2c1,0.8,2.9,7.6,2.9,7c0-1.8,1.3-4.8,1.5-5.2c0.4-0.8-0.1-2.1,1.6-3.5
		c2.8-2.4,13.6-11.1,17.6-14.3c1.2-1,1.2-1,2.4,0c3.8,3.1,15.5,13,17.8,14.9c1.2,1,1.9,6.6,2.6,6.6c0.8,0.1,1.6-5.8,3.3-7.2
		c4.1-3.3,32.4-25.3,33.9-26.4c0.3-0.2,2.8-1.8,3.9-2.1c1.8-0.5,2.3,3.3,2.3,2.9c0-7.1,0-7.1-4-10.5c-1.7-1.5-10.8-8.7-14-11.4
		c-3.2-2.6-3.9-2.5-7.2,0.3c-2.7,2.2-9.2,7.9-13.2,11.3c-4.8,4-4.8,4-9.1,0.5c-4.5-3.7-12.1-9.7-13.2-10.5c-3.6-2.5-4.2-2.5-7.4,0
		c-2.7,2.1-8.4,6.3-13,9.8c-5.6,4.2-5.6,4.2-9.9,0.3c-3.5-3.2-9.5-8.2-12.6-10.6c0,0-4.8-2.1-8.4,3.6s-3.2,22.3,1.6,26.3L92.7,98.3
		L92.7,98.3z"/>
	<path class="st1" d="M181.3,125.5c0,0,14.9-12,17.9-14.3c4-3,4-3,4-8.1c0-7.2,0-11.7,0-14.6c0-6.1-0.2-6-8.4,0.6
		c-5.4,4.3-14.7,11.8-14.7,11.8L181.3,125.5z"/>
	<path class="st1" d="M181.5,125.4c-18.8,14.9-18.3,14.1-19.9,15c-2.3,1.2-4.1-0.3-4.3-0.4c-0.8-0.6,2.5,1.5,2.5-1.9
		c0-4.8,0-13.8,0-14.9c0-5.6,0-5.6,3.7-8.7c2.2-1.9,17-13.7,17-13.7L181.5,125.4z"/>
	<path class="st2" d="M138.1,99.4c0,0,14.7,12.2,17.3,14.2c4.5,3.5,4.5,3.3,4.5,8.3c0,2.3,0,12,0,13.9c0,6,0,6.1-4.9,2.5
		c-2.5-1.9-12.1-9.4-15.4-12c-0.8-0.6-1.4-0.6-1.4-0.6v-2.1L138.1,99.4z"/>
	<path class="st1" d="M138.1,125.7c-0.7,0-1.3,0.5-1.5,0.6c-18,13.9-15.2,12.2-18.1,14.2c-1.1,0.8-3.1,0.7-3.8,0.3
		c-1.1-0.6-1.9-1.3-1.9-1.3c-0.6-0.3,3.5,1.7,3.5-1.7c0-4.8,0-13.3,0-14.4c0-6.4,0-6.3,4.3-9.9c2.2-1.8,17.4-14.1,17.4-14.1v24.2
		L138.1,125.7z"/>
	<polygon class="st2" points="94.7,125.1 94.7,100.1 73,82.3 73,107.9 	"/>
	<path class="st3" d="M68.7,138.9c4.4,3.4,5.2,3.8,5.2-4.8c0-3.3-0.4-41.8-0.4-41.8l-22.1,13.6c0,0,0,12.7,0,13.8
		c0,5.4,0,5.4,3.2,8.2C55.5,128.7,68.7,138.9,68.7,138.9z"/>
	<polygon class="st4" points="73.4,67.3 51.7,49.5 73.4,31.7 95.2,49.4 	"/>
	<polygon class="st3" points="73.4,92.3 73.4,67.3 51.7,49.5 51.7,75.1 	"/>
	<path class="st4" d="M95.1,49.5c0,0,16.7-13.1,18.6-14.7c1.3-1.1,2.8,4.2,2.8,2.5c0-2.2,0-6.2-1.6-7.4
		c-12.2-9.9-13.8-11.3-15.5-12.4c-4.2-3-5.3-2.7-10.4,1.5c-2.6,2.1-15.8,12.9-15.8,12.9L95.1,49.5z"/>
	<path class="st4" d="M52.2,49.1c0,0-14.2,11.6-16.1,13.1c-0.2,0.2-1.2,1-4.5,3.9c-2.3,2-1.9,8.3-1.9,8.8c0,0.3,2.1-5.4,3.1-4.6
		c3.3,2.7,14.5,11.2,15.6,12.8c1.5,2.2,2.9,7.7,2.9,8.1c-0.1,1.7,0.6-4.6,2.4-6.9C55.5,81.9,73.8,67,73.8,67L52.2,49.1z"/>
	<path class="st2" d="M93.7,124.3c0,0,18.9,15,19.6,15.6c3.5,2.6,3.2,1,3.2-3.7c0-1.9,0-10.7,0-12.2c0-6.9,0-6.8-4.8-10.5
		c-3.2-2.5-16.7-13.3-19.1-15.2C90.2,96.5,93.7,124.3,93.7,124.3z"/>
	<path class="st5" d="M51,107.1c0.2,2.3-2.3,0.8-1.3,1.7c1.1,1,3.3-0.1,4.9-1.3L73,92.9c0,0,0-0.8,0,9.9c0,5.9-0.3,15.8,0,30.7
		c0,2.3,0.1,2.2,0,5.5c-0.1,3-1.9,1.7-1.9,1.7s2,1.5,4.5-0.4c1.7-1.3,15.3-12.1,16.7-13.2c2.5-2,2.5-2,2.5-8.9c0-4.3,0-43.7,0-43.7
		s17.2-13.6,18.1-14.3c3.6-3.1,3.6-3.1,3.6-9.3c0-2.4,0-9.8,0-11.5c0-6.9-0.1-7.5-5.4-3.3c-2.5,2-54.3,44.5-55.4,45.4
		c-4.3,3.5-4.5,3.2-4.6,10.2C51,95.2,51,107.1,51,107.1z"/>
	<path class="st3" d="M29.6,87.8c0,5,0,5.2,3.4,7.7c1.8,1.3,14.8,11.7,16.1,12.7c2.3,1.8,2.3,1,2.3-5.1c-0.1-8.5-0.1,0.5-0.1-12.2
		c0-6,0.1-7.2-4-10.1c-4.2-3.1-8.4-6.2-12.8-9.5c-1.3-1-3.8-2.2-3.4-4.6c0,0-0.8,1.1-1.2,3.6c-0.3,2-0.2,3.9-0.2,6.7
		C29.5,83.3,29.6,87.5,29.6,87.8z"/>
	<path class="st0" d="M135,102.1c3.1-2.8,3.1-2.8,6.1-0.3c1.1,0.9,2.2,1.9,2.2,1.9s0.1-3.3-0.7-4.1c-0.8-0.9-8.7-3.2-8.7-0.1
		C133.8,102.6,135,102.1,135,102.1z"/>
	<path class="st5" d="M66.5,98.1l3-2.3c3.1-2.3,3.5-2.3,3.5,1.6c0,3.6,0,4.2,0,4.2s3.4-5.3,2.9-7.5c-0.5-2.3-1.7-8-5-4.9
		C67.5,92.2,66.3,98,66.5,98.1z"/>
	<path class="st5" d="M98,71.9c-3.2,2.6-3.2,2.8-3.2,7.3c0,1.5,0,6.4,0,6.4c-0.5-0.1-5-9.8-3.4-11.8c1.6-2.1,2.8-3.4,4.8-3.4
		C98.5,70.4,98.5,71.5,98,71.9z"/>
	<path class="st0" d="M92.7,98.3c0,0,19.6,17.3,20.8,18.2c1,0.8,2.9,7.6,2.9,7c0-1.8,1.3-4.8,1.5-5.2c0.4-0.8-0.1-2.1,1.6-3.5
		c2.8-2.4,13.6-11.1,17.6-14.3c1.2-1,1.2-1,2.4,0c3.8,3.1,15.5,13,17.8,14.9c1.2,1,1.9,6.6,2.6,6.6c0.8,0.1,1.6-5.8,3.3-7.2
		c4.1-3.3,32.4-25.3,33.9-26.4c0.3-0.2,2.8-1.8,3.9-2.1c1.8-0.5,2.3,3.3,2.3,2.9c0-7.1,0-7.1-4-10.5c-1.7-1.5-10.8-8.7-14-11.4
		c-3.2-2.6-3.9-2.5-7.2,0.3c-2.7,2.2-9.2,7.9-13.2,11.3c-4.8,4-4.8,4-9.1,0.5c-4.5-3.7-12.1-9.7-13.2-10.5c-3.6-2.5-4.2-2.5-7.4,0
		c-2.7,2.1-8.4,6.3-13,9.8c-5.6,4.2-5.6,4.2-9.9,0.3c-3.5-3.2-9.5-8.2-12.6-10.6c0,0-4.8-2.1-8.4,3.6s-3.2,22.3,1.6,26.3L92.7,98.3
		L92.7,98.3z"/>
	<path class="st1" d="M181.3,125.5c0,0,14.9-12,17.9-14.3c4-3,4-3,4-8.1c0-7.2,0-11.7,0-14.6c0-6.1-0.2-6-8.4,0.6
		c-5.4,4.3-14.7,11.8-14.7,11.8L181.3,125.5z"/>
	<path class="st1" d="M181.5,125.4c-18.8,14.9-18.3,14.1-19.9,15c-2.3,1.2-4.1-0.3-4.3-0.4c-0.8-0.6,2.5,1.5,2.5-1.9
		c0-4.8,0-13.8,0-14.9c0-5.6,0-5.6,3.7-8.7c2.2-1.9,17-13.7,17-13.7L181.5,125.4z"/>
	<path class="st2" d="M138.1,99.4c0,0,14.7,12.2,17.3,14.2c4.5,3.5,4.5,3.3,4.5,8.3c0,2.3,0,12,0,13.9c0,6,0,6.1-4.9,2.5
		c-2.5-1.9-12.1-9.4-15.4-12c-0.8-0.6-1.4-0.6-1.4-0.6v-2.1L138.1,99.4z"/>
	<path class="st1" d="M138.1,125.7c-0.7,0-1.3,0.5-1.5,0.6c-18,13.9-15.2,12.2-18.1,14.2c-1.1,0.8-3.1,0.7-3.8,0.3
		c-1.1-0.6-1.9-1.3-1.9-1.3c-0.6-0.3,3.5,1.7,3.5-1.7c0-4.8,0-13.3,0-14.4c0-6.4,0-6.3,4.3-9.9c2.2-1.8,17.4-14.1,17.4-14.1v24.2
		L138.1,125.7z"/>
	<polygon class="st2" points="94.7,125.1 94.7,100.1 73,82.3 73,107.9 	"/>
	<path class="st3" d="M68.7,138.9c4.4,3.4,5.2,3.8,5.2-4.8c0-3.3-0.4-41.8-0.4-41.8l-22.1,13.6c0,0,0,12.7,0,13.8
		c0,5.4,0,5.4,3.2,8.2C55.5,128.7,68.7,138.9,68.7,138.9z"/>
	<polygon class="st4" points="73.4,67.3 51.7,49.5 73.4,31.7 95.2,49.4 	"/>
	<polygon class="st3" points="73.4,92.3 73.4,67.3 51.7,49.5 51.7,75.1 	"/>
	<path class="st4" d="M95.1,49.5c0,0,16.7-13.1,18.6-14.7c1.3-1.1,2.8,4.2,2.8,2.5c0-2.2,0-6.2-1.6-7.4
		c-12.2-9.9-13.8-11.3-15.5-12.4c-4.2-3-5.3-2.7-10.4,1.5c-2.6,2.1-15.8,12.9-15.8,12.9L95.1,49.5z"/>
	<path class="st4" d="M52.2,49.1c0,0-14.2,11.6-16.1,13.1c-0.2,0.2-1.2,1-4.5,3.9c-2.3,2-1.9,8.3-1.9,8.8c0,0.3,2.1-5.4,3.1-4.6
		c3.3,2.7,14.5,11.2,15.6,12.8c1.5,2.2,2.9,7.7,2.9,8.1c-0.1,1.7,0.6-4.6,2.4-6.9C55.5,81.9,73.8,67,73.8,67L52.2,49.1z"/>
	<path class="st2" d="M93.7,124.3c0,0,18.9,15,19.6,15.6c3.5,2.6,3.2,1,3.2-3.7c0-1.9,0-10.7,0-12.2c0-6.9,0-6.8-4.8-10.5
		c-3.2-2.5-16.7-13.3-19.1-15.2C90.2,96.5,93.7,124.3,93.7,124.3z"/>
	<path class="st5" d="M51,107.1c0.2,2.3-2.3,0.8-1.3,1.7c1.1,1,3.3-0.1,4.9-1.3L73,92.9c0,0,0-0.8,0,9.9c0,5.9-0.3,15.8,0,30.7
		c0,2.3,0.1,2.2,0,5.5c-0.1,3-1.9,1.7-1.9,1.7s2,1.5,4.5-0.4c1.7-1.3,15.3-12.1,16.7-13.2c2.5-2,2.5-2,2.5-8.9c0-4.3,0-43.7,0-43.7
		s17.2-13.6,18.1-14.3c3.6-3.1,3.6-3.1,3.6-9.3c0-2.4,0-9.8,0-11.5c0-6.9-0.1-7.5-5.4-3.3c-2.5,2-54.3,44.5-55.4,45.4
		c-4.3,3.5-4.5,3.2-4.6,10.2C51,95.2,51,107.1,51,107.1z"/>
	<path class="st3" d="M29.6,87.8c0,5,0,5.2,3.4,7.7c1.8,1.3,14.8,11.7,16.1,12.7c2.3,1.8,2.3,1,2.3-5.1c-0.1-8.5-0.1,0.5-0.1-12.2
		c0-6,0.1-7.2-4-10.1c-4.2-3.1-8.4-6.2-12.8-9.5c-1.3-1-3.8-2.2-3.4-4.6c0,0-0.8,1.1-1.2,3.6c-0.3,2-0.2,3.9-0.2,6.7
		C29.5,83.3,29.6,87.5,29.6,87.8z"/>
	<path class="st0" d="M135,102.1c3.1-2.8,3.1-2.8,6.1-0.3c1.1,0.9,2.2,1.9,2.2,1.9s0.1-3.3-0.7-4.1c-0.8-0.9-8.7-3.2-8.7-0.1
		C133.8,102.6,135,102.1,135,102.1z"/>
	<path class="st5" d="M66.5,98.1l3-2.3c3.1-2.3,3.5-2.3,3.5,1.6c0,3.6,0,4.2,0,4.2s3.4-5.3,2.9-7.5c-0.5-2.3-1.7-8-5-4.9
		C67.5,92.2,66.3,98,66.5,98.1z"/>
	<path class="st5" d="M98,71.9c-3.2,2.6-3.2,2.8-3.2,7.3c0,1.5,0,6.4,0,6.4c-0.5-0.1-5-9.8-3.4-11.8c1.6-2.1,2.8-3.4,4.8-3.4
		C98.5,70.4,98.5,71.5,98,71.9z"/>
</g>
</svg>
